<mxfile host="Electron" modified="2024-03-15T14:15:38.373Z" agent="Mozilla/5.0 (X11; Linux x86_64) AppleWebKit/537.36 (KHTML, like Gecko) draw.io/22.0.2 Chrome/114.0.5735.289 Electron/25.8.4 Safari/537.36" etag="T5o_0Kak9WF5Q4JzFPuI" version="22.0.2" type="device">
  <diagram name="Page-1" id="uSaWA9K-XiQIFW_USvJn">
    <mxGraphModel dx="1434" dy="807" grid="1" gridSize="10" guides="1" tooltips="1" connect="1" arrows="1" fold="1" page="1" pageScale="1" pageWidth="827" pageHeight="1169" math="0" shadow="0">
      <root>
        <mxCell id="0" />
        <mxCell id="1" parent="0" />
        <mxCell id="UGg80_80YAbDQqHeRYwh-1" value="" style="rounded=0;whiteSpace=wrap;html=1;" vertex="1" parent="1">
          <mxGeometry x="260" y="120" width="360" height="250" as="geometry" />
        </mxCell>
        <mxCell id="UGg80_80YAbDQqHeRYwh-2" value="" style="rounded=0;whiteSpace=wrap;html=1;" vertex="1" parent="1">
          <mxGeometry x="280" y="140" width="50" height="60" as="geometry" />
        </mxCell>
        <mxCell id="UGg80_80YAbDQqHeRYwh-4" value="" style="rounded=0;whiteSpace=wrap;html=1;rotation=90;" vertex="1" parent="1">
          <mxGeometry x="340" y="280" width="50" height="70" as="geometry" />
        </mxCell>
        <mxCell id="UGg80_80YAbDQqHeRYwh-5" value="" style="rounded=0;whiteSpace=wrap;html=1;" vertex="1" parent="1">
          <mxGeometry x="550" y="160" width="50" height="60" as="geometry" />
        </mxCell>
        <mxCell id="UGg80_80YAbDQqHeRYwh-7" value="" style="pointerEvents=1;verticalLabelPosition=bottom;shadow=0;dashed=0;align=center;html=1;verticalAlign=top;shape=mxgraph.electrical.resistors.resistor_1;" vertex="1" parent="1">
          <mxGeometry x="414" y="210" width="100" height="20" as="geometry" />
        </mxCell>
        <mxCell id="UGg80_80YAbDQqHeRYwh-8" value="" style="pointerEvents=1;verticalLabelPosition=bottom;shadow=0;dashed=0;align=center;html=1;verticalAlign=top;shape=mxgraph.electrical.resistors.resistor_1;" vertex="1" parent="1">
          <mxGeometry x="410" y="270" width="100" height="20" as="geometry" />
        </mxCell>
        <mxCell id="UGg80_80YAbDQqHeRYwh-9" value="" style="rounded=0;whiteSpace=wrap;html=1;" vertex="1" parent="1">
          <mxGeometry x="410" y="150" width="115" height="40" as="geometry" />
        </mxCell>
        <mxCell id="UGg80_80YAbDQqHeRYwh-10" value="" style="shape=or;whiteSpace=wrap;html=1;rotation=-90;" vertex="1" parent="1">
          <mxGeometry x="381" y="437" width="36" height="50" as="geometry" />
        </mxCell>
      </root>
    </mxGraphModel>
  </diagram>
</mxfile>
